<svg width="394" height="404" viewBox="0 0 394 404" fill="none" xmlns="http://www.w3.org/2000/svg">
<path d="M393.586 201.835C393.586 233.633 386.236 264.979 372.137 293.311C358.038 321.643 337.59 346.156 312.465 364.846C287.34 383.537 258.252 395.873 227.578 400.847C196.905 405.822 165.517 403.292 135.981 393.466L154.224 335.977C174.9 342.855 196.871 344.626 218.343 341.144C239.814 337.662 260.176 329.026 277.763 315.943C295.351 302.86 309.664 285.701 319.534 265.868C329.403 246.036 334.548 224.094 334.548 201.835H393.586Z" fill="#80B3FF"/>
<path d="M135.981 393.466C96.456 380.317 62.0116 354.694 37.5841 320.27C13.1566 285.845 -3.63317e-06 244.386 0 201.835H59.0379C59.0379 231.621 68.2475 260.642 85.3468 284.739C102.446 308.837 126.557 326.773 154.224 335.977L135.981 393.466Z" fill="#354182"/>
<path d="M0 201.835C2.715e-06 170.038 7.35004 138.692 21.4492 110.36C35.5483 82.0277 55.9962 57.5146 81.121 38.8244L115.823 87.7277C98.2352 100.811 83.9217 117.97 74.0523 137.802C64.1829 157.635 59.0379 179.577 59.0379 201.835H0Z" fill="#000833"/>
<path d="M81.121 38.8244C110.483 16.9825 145.172 3.87942 181.353 0.963905C217.534 -1.95161 253.798 5.434 286.135 22.3042C318.473 39.1744 345.624 64.8719 364.587 96.5558C383.55 128.24 393.586 164.676 393.586 201.835H334.548C334.548 175.824 327.523 150.318 314.249 128.14C300.974 105.961 281.969 87.9727 259.333 76.1635C236.696 64.3544 211.312 59.1845 185.985 61.2253C160.658 63.2662 136.376 72.4383 115.823 87.7277L81.121 38.8244Z" fill="#D9DEFF"/>
</svg>
